<mxfile host="app.diagrams.net" agent="Mozilla/5.0 (Windows NT 10.0; Win64; x64) AppleWebKit/537.36 (KHTML, like Gecko) Chrome/141.0.0.0 Safari/537.36" version="28.2.8">
  <diagram name="Сторінка-1" id="h175hZ9GeR1VW_SSsy0b">
    <mxGraphModel dx="1389" dy="819" grid="0" gridSize="10" guides="0" tooltips="1" connect="1" arrows="1" fold="1" page="1" pageScale="1" pageWidth="827" pageHeight="1169" background="light-dark(#FFFFFF,#FFFFFF)" math="0" shadow="0">
      <root>
        <mxCell id="0" />
        <mxCell id="1" parent="0" />
        <mxCell id="xd3_DoJURjWQBY7y_7KH-1" value="" style="rhombus;whiteSpace=wrap;html=1;fillColor=none;strokeColor=light-dark(#000000,#3399FF);rotation=0;fontColor=light-dark(#000000,#000000);" parent="1" vertex="1">
          <mxGeometry x="275" y="47" width="61" height="35" as="geometry" />
        </mxCell>
        <mxCell id="xd3_DoJURjWQBY7y_7KH-2" value="" style="rounded=0;whiteSpace=wrap;html=1;fillColor=none;strokeColor=#CC0000;fontColor=light-dark(#000000,#000000);" parent="1" vertex="1">
          <mxGeometry x="274" y="102" width="68" height="28" as="geometry" />
        </mxCell>
        <mxCell id="xd3_DoJURjWQBY7y_7KH-46" value="" style="edgeStyle=none;curved=1;rounded=0;orthogonalLoop=1;jettySize=auto;html=1;fontFamily=Helvetica;fontSize=12;fontColor=light-dark(#000000,#000000);startSize=8;endSize=8;" parent="1" source="xd3_DoJURjWQBY7y_7KH-10" target="xd3_DoJURjWQBY7y_7KH-11" edge="1">
          <mxGeometry relative="1" as="geometry" />
        </mxCell>
        <mxCell id="xd3_DoJURjWQBY7y_7KH-10" value="" style="rhombus;whiteSpace=wrap;html=1;fillColor=none;strokeColor=light-dark(#000000,#3399FF);rotation=0;fontColor=light-dark(#000000,#000000);" parent="1" vertex="1">
          <mxGeometry x="397" y="98" width="69" height="35" as="geometry" />
        </mxCell>
        <mxCell id="xd3_DoJURjWQBY7y_7KH-11" value="" style="rounded=0;whiteSpace=wrap;html=1;fillColor=none;strokeColor=#CC0000;fontColor=light-dark(#000000,#000000);" parent="1" vertex="1">
          <mxGeometry x="508" y="102" width="68" height="28" as="geometry" />
        </mxCell>
        <mxCell id="xd3_DoJURjWQBY7y_7KH-12" value="" style="rhombus;whiteSpace=wrap;html=1;fillColor=none;strokeColor=light-dark(#000000,#3399FF);rotation=0;fontColor=light-dark(#000000,#000000);" parent="1" vertex="1">
          <mxGeometry x="361" y="195" width="69" height="35" as="geometry" />
        </mxCell>
        <mxCell id="xd3_DoJURjWQBY7y_7KH-13" value="" style="rounded=0;whiteSpace=wrap;html=1;fillColor=none;strokeColor=#CC0000;fontColor=light-dark(#000000,#000000);" parent="1" vertex="1">
          <mxGeometry x="428" y="263" width="68" height="28" as="geometry" />
        </mxCell>
        <mxCell id="xd3_DoJURjWQBY7y_7KH-14" value="" style="rhombus;whiteSpace=wrap;html=1;fillColor=none;strokeColor=light-dark(#000000,#3399FF);rotation=0;fontColor=light-dark(#000000,#000000);" parent="1" vertex="1">
          <mxGeometry x="332" y="311" width="69" height="35" as="geometry" />
        </mxCell>
        <mxCell id="xd3_DoJURjWQBY7y_7KH-15" value="" style="rhombus;whiteSpace=wrap;html=1;fillColor=none;strokeColor=light-dark(#000000,#3399FF);rotation=0;fontColor=light-dark(#000000,#000000);" parent="1" vertex="1">
          <mxGeometry x="519" y="309" width="69" height="35" as="geometry" />
        </mxCell>
        <mxCell id="xd3_DoJURjWQBY7y_7KH-16" value="" style="ellipse;whiteSpace=wrap;html=1;rounded=0;strokeColor=light-dark(#000000,#000000);align=center;verticalAlign=middle;fontFamily=Helvetica;fontSize=12;fontColor=light-dark(#000000,#000000);fillColor=none;" parent="1" vertex="1">
          <mxGeometry x="143" y="33" width="46" height="21" as="geometry" />
        </mxCell>
        <mxCell id="xd3_DoJURjWQBY7y_7KH-17" value="manages" style="text;html=1;align=center;verticalAlign=middle;whiteSpace=wrap;rounded=0;fontSize=6;fontFamily=Helvetica;fontColor=light-dark(#000000,#000000);" parent="1" vertex="1">
          <mxGeometry x="285" y="53" width="40" height="22" as="geometry" />
        </mxCell>
        <mxCell id="xd3_DoJURjWQBY7y_7KH-18" value="employee" style="text;strokeColor=none;fillColor=none;html=1;align=center;verticalAlign=middle;whiteSpace=wrap;rounded=0;fontSize=6;fontFamily=Helvetica;fontColor=light-dark(#000000,#000000);" parent="1" vertex="1">
          <mxGeometry x="276" y="100" width="60" height="30" as="geometry" />
        </mxCell>
        <mxCell id="xd3_DoJURjWQBY7y_7KH-19" value="" style="edgeStyle=orthogonalEdgeStyle;fontSize=12;html=1;endArrow=ERzeroToMany;endFill=1;rounded=0;fontFamily=Helvetica;fontColor=light-dark(#000000,#000000);startSize=2;endSize=2;strokeColor=#3399FF;exitX=0;exitY=0.5;exitDx=0;exitDy=0;entryX=0.25;entryY=0;entryDx=0;entryDy=0;" parent="1" source="xd3_DoJURjWQBY7y_7KH-1" target="xd3_DoJURjWQBY7y_7KH-18" edge="1">
          <mxGeometry width="100" height="100" relative="1" as="geometry">
            <mxPoint x="197" y="218" as="sourcePoint" />
            <mxPoint x="297" y="118" as="targetPoint" />
            <Array as="points">
              <mxPoint x="265" y="65" />
              <mxPoint x="265" y="90" />
              <mxPoint x="291" y="90" />
            </Array>
          </mxGeometry>
        </mxCell>
        <mxCell id="xd3_DoJURjWQBY7y_7KH-20" value="" style="edgeStyle=orthogonalEdgeStyle;fontSize=12;html=1;endArrow=ERzeroToOne;endFill=1;rounded=0;fontFamily=Helvetica;fontColor=light-dark(#000000,#000000);startSize=1;endSize=3;strokeColor=#3399FF;exitX=1;exitY=0.5;exitDx=0;exitDy=0;entryX=0.839;entryY=0.014;entryDx=0;entryDy=0;entryPerimeter=0;" parent="1" source="xd3_DoJURjWQBY7y_7KH-1" target="xd3_DoJURjWQBY7y_7KH-18" edge="1">
          <mxGeometry width="100" height="100" relative="1" as="geometry">
            <mxPoint x="175" y="229" as="sourcePoint" />
            <mxPoint x="275" y="129" as="targetPoint" />
          </mxGeometry>
        </mxCell>
        <mxCell id="xd3_DoJURjWQBY7y_7KH-21" value="" style="ellipse;whiteSpace=wrap;html=1;rounded=0;strokeColor=light-dark(#000000,#000000);align=center;verticalAlign=middle;fontFamily=Helvetica;fontSize=12;fontColor=light-dark(#000000,#000000);fillColor=none;" parent="1" vertex="1">
          <mxGeometry x="83" y="42" width="46" height="21" as="geometry" />
        </mxCell>
        <mxCell id="xd3_DoJURjWQBY7y_7KH-22" value="" style="ellipse;whiteSpace=wrap;html=1;rounded=0;strokeColor=light-dark(#000000,#000000);align=center;verticalAlign=middle;fontFamily=Helvetica;fontSize=12;fontColor=light-dark(#000000,#000000);fillColor=none;" parent="1" vertex="1">
          <mxGeometry x="47" y="62" width="46" height="21" as="geometry" />
        </mxCell>
        <mxCell id="xd3_DoJURjWQBY7y_7KH-23" value="" style="ellipse;whiteSpace=wrap;html=1;rounded=0;strokeColor=light-dark(#000000,#000000);align=center;verticalAlign=middle;fontFamily=Helvetica;fontSize=12;fontColor=light-dark(#000000,#000000);fillColor=none;" parent="1" vertex="1">
          <mxGeometry x="36" y="91" width="46" height="21" as="geometry" />
        </mxCell>
        <mxCell id="xd3_DoJURjWQBY7y_7KH-24" value="" style="ellipse;whiteSpace=wrap;html=1;rounded=0;strokeColor=light-dark(#000000,#000000);align=center;verticalAlign=middle;fontFamily=Helvetica;fontSize=12;fontColor=light-dark(#000000,#000000);fillColor=none;" parent="1" vertex="1">
          <mxGeometry x="50" y="121" width="46" height="21" as="geometry" />
        </mxCell>
        <mxCell id="xd3_DoJURjWQBY7y_7KH-25" value="" style="endArrow=none;html=1;rounded=0;fontFamily=Helvetica;fontSize=12;fontColor=light-dark(#000000,#000000);startSize=8;endSize=8;curved=1;strokeColor=light-dark(#000000,#000000);exitX=1;exitY=1;exitDx=0;exitDy=0;entryX=0;entryY=0.25;entryDx=0;entryDy=0;" parent="1" source="xd3_DoJURjWQBY7y_7KH-16" target="xd3_DoJURjWQBY7y_7KH-2" edge="1">
          <mxGeometry relative="1" as="geometry">
            <mxPoint x="249" y="155" as="sourcePoint" />
            <mxPoint x="272" y="112" as="targetPoint" />
          </mxGeometry>
        </mxCell>
        <mxCell id="xd3_DoJURjWQBY7y_7KH-26" value="" style="ellipse;whiteSpace=wrap;html=1;rounded=0;strokeColor=light-dark(#000000,#000000);align=center;verticalAlign=middle;fontFamily=Helvetica;fontSize=12;fontColor=light-dark(#000000,#000000);fillColor=none;" parent="1" vertex="1">
          <mxGeometry x="76" y="151" width="46" height="21" as="geometry" />
        </mxCell>
        <mxCell id="xd3_DoJURjWQBY7y_7KH-27" value="" style="endArrow=none;html=1;rounded=0;fontFamily=Helvetica;fontSize=12;fontColor=light-dark(#000000,#000000);startSize=8;endSize=8;curved=1;strokeColor=light-dark(#000000,#000000);exitX=0;exitY=0.25;exitDx=0;exitDy=0;entryX=1;entryY=0.5;entryDx=0;entryDy=0;" parent="1" source="xd3_DoJURjWQBY7y_7KH-2" target="xd3_DoJURjWQBY7y_7KH-21" edge="1">
          <mxGeometry relative="1" as="geometry">
            <mxPoint x="254" y="89" as="sourcePoint" />
            <mxPoint x="317" y="141" as="targetPoint" />
          </mxGeometry>
        </mxCell>
        <mxCell id="xd3_DoJURjWQBY7y_7KH-28" value="" style="endArrow=none;html=1;rounded=0;fontFamily=Helvetica;fontSize=12;fontColor=light-dark(#000000,#000000);startSize=8;endSize=8;curved=1;strokeColor=light-dark(#000000,#000000);exitX=1;exitY=0.5;exitDx=0;exitDy=0;entryX=0;entryY=0.25;entryDx=0;entryDy=0;" parent="1" source="xd3_DoJURjWQBY7y_7KH-22" target="xd3_DoJURjWQBY7y_7KH-18" edge="1">
          <mxGeometry relative="1" as="geometry">
            <mxPoint x="246" y="109" as="sourcePoint" />
            <mxPoint x="309" y="161" as="targetPoint" />
          </mxGeometry>
        </mxCell>
        <mxCell id="xd3_DoJURjWQBY7y_7KH-29" value="" style="endArrow=none;html=1;rounded=0;fontFamily=Helvetica;fontSize=12;fontColor=light-dark(#000000,#000000);startSize=8;endSize=8;curved=1;strokeColor=light-dark(#000000,#000000);exitX=0;exitY=0.5;exitDx=0;exitDy=0;entryX=1;entryY=0.5;entryDx=0;entryDy=0;" parent="1" source="xd3_DoJURjWQBY7y_7KH-2" target="xd3_DoJURjWQBY7y_7KH-23" edge="1">
          <mxGeometry relative="1" as="geometry">
            <mxPoint x="200" y="110" as="sourcePoint" />
            <mxPoint x="263" y="162" as="targetPoint" />
          </mxGeometry>
        </mxCell>
        <mxCell id="xd3_DoJURjWQBY7y_7KH-30" value="" style="endArrow=none;html=1;rounded=0;fontFamily=Helvetica;fontSize=12;fontColor=light-dark(#000000,#000000);startSize=8;endSize=8;curved=1;strokeColor=light-dark(#000000,#000000);exitX=1;exitY=0;exitDx=0;exitDy=0;entryX=0;entryY=0.5;entryDx=0;entryDy=0;" parent="1" source="xd3_DoJURjWQBY7y_7KH-24" target="xd3_DoJURjWQBY7y_7KH-18" edge="1">
          <mxGeometry relative="1" as="geometry">
            <mxPoint x="174" y="144" as="sourcePoint" />
            <mxPoint x="237" y="196" as="targetPoint" />
          </mxGeometry>
        </mxCell>
        <mxCell id="xd3_DoJURjWQBY7y_7KH-31" value="" style="endArrow=none;html=1;rounded=0;fontFamily=Helvetica;fontSize=12;fontColor=light-dark(#000000,#000000);startSize=8;endSize=8;curved=1;strokeColor=light-dark(#000000,#000000);exitX=1;exitY=0.5;exitDx=0;exitDy=0;entryX=0;entryY=0.5;entryDx=0;entryDy=0;" parent="1" source="xd3_DoJURjWQBY7y_7KH-26" target="xd3_DoJURjWQBY7y_7KH-2" edge="1">
          <mxGeometry relative="1" as="geometry">
            <mxPoint x="253" y="130" as="sourcePoint" />
            <mxPoint x="316" y="182" as="targetPoint" />
          </mxGeometry>
        </mxCell>
        <mxCell id="xd3_DoJURjWQBY7y_7KH-33" value="" style="ellipse;whiteSpace=wrap;html=1;rounded=0;strokeColor=light-dark(#000000,#000000);align=center;verticalAlign=middle;fontFamily=Helvetica;fontSize=12;fontColor=light-dark(#000000,#000000);fillColor=none;dashed=1;" parent="1" vertex="1">
          <mxGeometry x="120" y="177" width="46" height="21" as="geometry" />
        </mxCell>
        <mxCell id="xd3_DoJURjWQBY7y_7KH-34" value="" style="ellipse;whiteSpace=wrap;html=1;rounded=0;strokeColor=light-dark(#000000,#000000);align=center;verticalAlign=middle;fontFamily=Helvetica;fontSize=12;fontColor=light-dark(#000000,#000000);fillColor=none;dashed=1;" parent="1" vertex="1">
          <mxGeometry x="168" y="186" width="46" height="21" as="geometry" />
        </mxCell>
        <mxCell id="xd3_DoJURjWQBY7y_7KH-35" value="" style="ellipse;whiteSpace=wrap;html=1;rounded=0;strokeColor=light-dark(#000000,#000000);align=center;verticalAlign=middle;fontFamily=Helvetica;fontSize=12;fontColor=light-dark(#000000,#000000);fillColor=none;" parent="1" vertex="1">
          <mxGeometry x="219" y="192" width="46" height="21" as="geometry" />
        </mxCell>
        <mxCell id="xd3_DoJURjWQBY7y_7KH-36" value="" style="ellipse;whiteSpace=wrap;html=1;rounded=0;strokeColor=light-dark(#000000,#000000);align=center;verticalAlign=middle;fontFamily=Helvetica;fontSize=12;fontColor=light-dark(#000000,#000000);fillColor=none;dashed=1;" parent="1" vertex="1">
          <mxGeometry x="282" y="198" width="46" height="21" as="geometry" />
        </mxCell>
        <mxCell id="xd3_DoJURjWQBY7y_7KH-38" value="" style="endArrow=none;html=1;rounded=0;fontFamily=Helvetica;fontSize=12;fontColor=light-dark(#000000,#000000);startSize=8;endSize=8;curved=1;strokeColor=light-dark(#000000,#000000);exitX=1;exitY=0;exitDx=0;exitDy=0;" parent="1" source="xd3_DoJURjWQBY7y_7KH-33" edge="1">
          <mxGeometry relative="1" as="geometry">
            <mxPoint x="208" y="180" as="sourcePoint" />
            <mxPoint x="270" y="119" as="targetPoint" />
          </mxGeometry>
        </mxCell>
        <mxCell id="xd3_DoJURjWQBY7y_7KH-39" value="" style="endArrow=none;html=1;rounded=0;fontFamily=Helvetica;fontSize=12;fontColor=light-dark(#000000,#000000);startSize=8;endSize=8;curved=1;strokeColor=light-dark(#000000,#000000);exitX=0.694;exitY=0.083;exitDx=0;exitDy=0;entryX=0;entryY=1;entryDx=0;entryDy=0;exitPerimeter=0;" parent="1" source="xd3_DoJURjWQBY7y_7KH-34" target="xd3_DoJURjWQBY7y_7KH-18" edge="1">
          <mxGeometry relative="1" as="geometry">
            <mxPoint x="233" y="202" as="sourcePoint" />
            <mxPoint x="385" y="156" as="targetPoint" />
          </mxGeometry>
        </mxCell>
        <mxCell id="xd3_DoJURjWQBY7y_7KH-40" value="" style="endArrow=none;html=1;rounded=0;fontFamily=Helvetica;fontSize=12;fontColor=light-dark(#000000,#000000);startSize=8;endSize=8;curved=1;strokeColor=light-dark(#000000,#000000);exitX=0.5;exitY=0;exitDx=0;exitDy=0;entryX=0.25;entryY=1;entryDx=0;entryDy=0;" parent="1" source="xd3_DoJURjWQBY7y_7KH-35" target="xd3_DoJURjWQBY7y_7KH-18" edge="1">
          <mxGeometry relative="1" as="geometry">
            <mxPoint x="264" y="221" as="sourcePoint" />
            <mxPoint x="416" y="175" as="targetPoint" />
          </mxGeometry>
        </mxCell>
        <mxCell id="xd3_DoJURjWQBY7y_7KH-41" value="" style="endArrow=none;html=1;rounded=0;fontFamily=Helvetica;fontSize=12;fontColor=light-dark(#000000,#000000);startSize=8;endSize=8;curved=1;strokeColor=light-dark(#000000,#000000);exitX=0.5;exitY=0;exitDx=0;exitDy=0;entryX=0.25;entryY=1;entryDx=0;entryDy=0;" parent="1" source="xd3_DoJURjWQBY7y_7KH-36" target="xd3_DoJURjWQBY7y_7KH-18" edge="1">
          <mxGeometry relative="1" as="geometry">
            <mxPoint x="251" y="273" as="sourcePoint" />
            <mxPoint x="403" y="227" as="targetPoint" />
          </mxGeometry>
        </mxCell>
        <mxCell id="xd3_DoJURjWQBY7y_7KH-43" value="" style="edgeStyle=orthogonalEdgeStyle;fontSize=12;html=1;endArrow=ERzeroToMany;endFill=1;rounded=0;fontFamily=Helvetica;fontColor=light-dark(#000000,#000000);startSize=2;endSize=2;strokeColor=#3399FF;exitX=0;exitY=0.5;exitDx=0;exitDy=0;entryX=1;entryY=0.5;entryDx=0;entryDy=0;" parent="1" source="xd3_DoJURjWQBY7y_7KH-10" target="xd3_DoJURjWQBY7y_7KH-2" edge="1">
          <mxGeometry width="100" height="100" relative="1" as="geometry">
            <mxPoint x="271" y="70" as="sourcePoint" />
            <mxPoint x="287" y="105" as="targetPoint" />
            <Array as="points">
              <mxPoint x="349" y="116" />
            </Array>
          </mxGeometry>
        </mxCell>
        <mxCell id="xd3_DoJURjWQBY7y_7KH-44" value="" style="edgeStyle=orthogonalEdgeStyle;fontSize=12;html=1;endArrow=ERzeroToOne;endFill=1;rounded=0;fontFamily=Helvetica;fontColor=light-dark(#000000,#000000);startSize=1;endSize=3;strokeColor=#3399FF;exitX=1;exitY=0.5;exitDx=0;exitDy=0;entryX=0;entryY=0.5;entryDx=0;entryDy=0;" parent="1" source="xd3_DoJURjWQBY7y_7KH-10" target="xd3_DoJURjWQBY7y_7KH-11" edge="1">
          <mxGeometry width="100" height="100" relative="1" as="geometry">
            <mxPoint x="344" y="86" as="sourcePoint" />
            <mxPoint x="334" y="121" as="targetPoint" />
          </mxGeometry>
        </mxCell>
        <mxCell id="xd3_DoJURjWQBY7y_7KH-45" value="" style="edgeStyle=orthogonalEdgeStyle;fontSize=12;html=1;endArrow=ERmandOne;rounded=0;fontFamily=Helvetica;fontColor=light-dark(#000000,#000000);startSize=2;endSize=2;strokeColor=#3399FF;entryX=0.5;entryY=1;entryDx=0;entryDy=0;exitX=0.5;exitY=0;exitDx=0;exitDy=0;" parent="1" source="xd3_DoJURjWQBY7y_7KH-12" target="xd3_DoJURjWQBY7y_7KH-18" edge="1">
          <mxGeometry width="100" height="100" relative="1" as="geometry">
            <mxPoint x="60" y="310" as="sourcePoint" />
            <mxPoint x="160" y="210" as="targetPoint" />
          </mxGeometry>
        </mxCell>
        <mxCell id="xd3_DoJURjWQBY7y_7KH-47" value="" style="edgeStyle=orthogonalEdgeStyle;fontSize=12;html=1;endArrow=ERzeroToOne;endFill=1;rounded=0;fontFamily=Helvetica;fontColor=light-dark(#000000,#000000);startSize=1;endSize=3;strokeColor=#3399FF;exitX=1;exitY=0.5;exitDx=0;exitDy=0;entryX=0.5;entryY=0;entryDx=0;entryDy=0;" parent="1" source="xd3_DoJURjWQBY7y_7KH-12" target="xd3_DoJURjWQBY7y_7KH-13" edge="1">
          <mxGeometry width="100" height="100" relative="1" as="geometry">
            <mxPoint x="480" y="110" as="sourcePoint" />
            <mxPoint x="522" y="110" as="targetPoint" />
          </mxGeometry>
        </mxCell>
        <mxCell id="xd3_DoJURjWQBY7y_7KH-48" value="" style="edgeStyle=orthogonalEdgeStyle;fontSize=12;html=1;endArrow=ERzeroToMany;endFill=1;rounded=0;fontFamily=Helvetica;fontColor=light-dark(#000000,#000000);startSize=2;endSize=2;strokeColor=#3399FF;exitX=1;exitY=0.5;exitDx=0;exitDy=0;entryX=0.15;entryY=1.092;entryDx=0;entryDy=0;entryPerimeter=0;" parent="1" source="xd3_DoJURjWQBY7y_7KH-14" target="xd3_DoJURjWQBY7y_7KH-13" edge="1">
          <mxGeometry width="100" height="100" relative="1" as="geometry">
            <mxPoint x="411" y="108" as="sourcePoint" />
            <mxPoint x="428" y="277" as="targetPoint" />
            <Array as="points">
              <mxPoint x="438" y="328" />
            </Array>
          </mxGeometry>
        </mxCell>
        <mxCell id="xd3_DoJURjWQBY7y_7KH-49" value="" style="edgeStyle=orthogonalEdgeStyle;fontSize=12;html=1;endArrow=ERoneToMany;rounded=0;fontFamily=Helvetica;fontColor=light-dark(#000000,#000000);startSize=1;endSize=2;strokeColor=#66B2FF;entryX=0.75;entryY=1;entryDx=0;entryDy=0;exitX=0;exitY=0.5;exitDx=0;exitDy=0;" parent="1" source="xd3_DoJURjWQBY7y_7KH-15" target="xd3_DoJURjWQBY7y_7KH-13" edge="1">
          <mxGeometry width="100" height="100" relative="1" as="geometry">
            <mxPoint x="71" y="370" as="sourcePoint" />
            <mxPoint x="171" y="270" as="targetPoint" />
          </mxGeometry>
        </mxCell>
        <mxCell id="xd3_DoJURjWQBY7y_7KH-50" value="" style="rounded=0;whiteSpace=wrap;html=1;fillColor=none;strokeColor=#CC0000;fontColor=light-dark(#000000,#000000);" parent="1" vertex="1">
          <mxGeometry x="217" y="369" width="68" height="28" as="geometry" />
        </mxCell>
        <mxCell id="xd3_DoJURjWQBY7y_7KH-51" value="" style="rounded=0;whiteSpace=wrap;html=1;fillColor=none;strokeColor=#CC0000;fontColor=light-dark(#000000,#000000);" parent="1" vertex="1">
          <mxGeometry x="609" y="369" width="68" height="28" as="geometry" />
        </mxCell>
        <mxCell id="xd3_DoJURjWQBY7y_7KH-52" value="" style="edgeStyle=orthogonalEdgeStyle;fontSize=12;html=1;endArrow=ERmandOne;rounded=0;fontFamily=Helvetica;fontColor=light-dark(#000000,#000000);startSize=2;endSize=2;strokeColor=#3399FF;entryX=0.5;entryY=0;entryDx=0;entryDy=0;exitX=0;exitY=0.5;exitDx=0;exitDy=0;" parent="1" source="xd3_DoJURjWQBY7y_7KH-14" target="xd3_DoJURjWQBY7y_7KH-50" edge="1">
          <mxGeometry width="100" height="100" relative="1" as="geometry">
            <mxPoint x="424" y="227" as="sourcePoint" />
            <mxPoint x="334" y="162" as="targetPoint" />
          </mxGeometry>
        </mxCell>
        <mxCell id="xd3_DoJURjWQBY7y_7KH-53" value="" style="edgeStyle=orthogonalEdgeStyle;fontSize=12;html=1;endArrow=ERmandOne;rounded=0;fontFamily=Helvetica;fontColor=light-dark(#000000,#000000);startSize=2;endSize=2;strokeColor=#3399FF;entryX=0.5;entryY=0;entryDx=0;entryDy=0;exitX=1;exitY=0.5;exitDx=0;exitDy=0;" parent="1" source="xd3_DoJURjWQBY7y_7KH-15" target="xd3_DoJURjWQBY7y_7KH-51" edge="1">
          <mxGeometry width="100" height="100" relative="1" as="geometry">
            <mxPoint x="399" y="420" as="sourcePoint" />
            <mxPoint x="309" y="355" as="targetPoint" />
          </mxGeometry>
        </mxCell>
        <mxCell id="xd3_DoJURjWQBY7y_7KH-54" value="" style="ellipse;whiteSpace=wrap;html=1;rounded=0;strokeColor=light-dark(#000000,#000000);align=center;verticalAlign=middle;fontFamily=Helvetica;fontSize=12;fontColor=light-dark(#000000,#000000);fillColor=none;" parent="1" vertex="1">
          <mxGeometry x="482" y="34" width="46" height="21" as="geometry" />
        </mxCell>
        <mxCell id="xd3_DoJURjWQBY7y_7KH-55" value="" style="ellipse;whiteSpace=wrap;html=1;rounded=0;strokeColor=light-dark(#000000,#000000);align=center;verticalAlign=middle;fontFamily=Helvetica;fontSize=12;fontColor=light-dark(#000000,#000000);fillColor=none;" parent="1" vertex="1">
          <mxGeometry x="539" y="33" width="46" height="21" as="geometry" />
        </mxCell>
        <mxCell id="xd3_DoJURjWQBY7y_7KH-56" value="" style="ellipse;whiteSpace=wrap;html=1;rounded=0;strokeColor=light-dark(#000000,#000000);align=center;verticalAlign=middle;fontFamily=Helvetica;fontSize=12;fontColor=light-dark(#000000,#000000);fillColor=none;" parent="1" vertex="1">
          <mxGeometry x="598" y="46" width="46" height="21" as="geometry" />
        </mxCell>
        <mxCell id="xd3_DoJURjWQBY7y_7KH-57" value="" style="ellipse;whiteSpace=wrap;html=1;rounded=0;strokeColor=light-dark(#000000,#000000);align=center;verticalAlign=middle;fontFamily=Helvetica;fontSize=12;fontColor=light-dark(#000000,#000000);fillColor=none;dashed=1;" parent="1" vertex="1">
          <mxGeometry x="602" y="84" width="46" height="21" as="geometry" />
        </mxCell>
        <mxCell id="xd3_DoJURjWQBY7y_7KH-58" value="" style="endArrow=none;html=1;rounded=0;fontFamily=Helvetica;fontSize=12;fontColor=light-dark(#000000,#000000);startSize=8;endSize=8;curved=1;strokeColor=light-dark(#000000,#000000);exitX=0.5;exitY=1;exitDx=0;exitDy=0;entryX=0.5;entryY=0;entryDx=0;entryDy=0;" parent="1" source="xd3_DoJURjWQBY7y_7KH-54" target="xd3_DoJURjWQBY7y_7KH-11" edge="1">
          <mxGeometry relative="1" as="geometry">
            <mxPoint x="208" y="67" as="sourcePoint" />
            <mxPoint x="299" y="125" as="targetPoint" />
          </mxGeometry>
        </mxCell>
        <mxCell id="xd3_DoJURjWQBY7y_7KH-59" value="" style="endArrow=none;html=1;rounded=0;fontFamily=Helvetica;fontSize=12;fontColor=light-dark(#000000,#000000);startSize=8;endSize=8;curved=1;strokeColor=light-dark(#000000,#000000);exitX=0.5;exitY=0;exitDx=0;exitDy=0;entryX=0.5;entryY=1;entryDx=0;entryDy=0;" parent="1" source="xd3_DoJURjWQBY7y_7KH-11" target="xd3_DoJURjWQBY7y_7KH-55" edge="1">
          <mxGeometry relative="1" as="geometry">
            <mxPoint x="566" y="97" as="sourcePoint" />
            <mxPoint x="657" y="155" as="targetPoint" />
          </mxGeometry>
        </mxCell>
        <mxCell id="xd3_DoJURjWQBY7y_7KH-60" value="" style="endArrow=none;html=1;rounded=0;fontFamily=Helvetica;fontSize=12;fontColor=light-dark(#000000,#000000);startSize=8;endSize=8;curved=1;strokeColor=light-dark(#000000,#000000);exitX=0;exitY=0.5;exitDx=0;exitDy=0;entryX=0.5;entryY=0;entryDx=0;entryDy=0;" parent="1" source="xd3_DoJURjWQBY7y_7KH-56" target="xd3_DoJURjWQBY7y_7KH-11" edge="1">
          <mxGeometry relative="1" as="geometry">
            <mxPoint x="573" y="85" as="sourcePoint" />
            <mxPoint x="664" y="143" as="targetPoint" />
          </mxGeometry>
        </mxCell>
        <mxCell id="xd3_DoJURjWQBY7y_7KH-61" value="" style="endArrow=none;html=1;rounded=0;fontFamily=Helvetica;fontSize=12;fontColor=light-dark(#000000,#000000);startSize=8;endSize=8;curved=1;strokeColor=light-dark(#000000,#000000);exitX=0.5;exitY=0;exitDx=0;exitDy=0;entryX=0;entryY=0.5;entryDx=0;entryDy=0;" parent="1" source="xd3_DoJURjWQBY7y_7KH-11" target="xd3_DoJURjWQBY7y_7KH-57" edge="1">
          <mxGeometry relative="1" as="geometry">
            <mxPoint x="581" y="143" as="sourcePoint" />
            <mxPoint x="672" y="201" as="targetPoint" />
          </mxGeometry>
        </mxCell>
        <mxCell id="xd3_DoJURjWQBY7y_7KH-62" value="" style="ellipse;whiteSpace=wrap;html=1;rounded=0;strokeColor=light-dark(#000000,#000000);align=center;verticalAlign=middle;fontFamily=Helvetica;fontSize=12;fontColor=light-dark(#000000,#000000);fillColor=none;" parent="1" vertex="1">
          <mxGeometry x="687" y="279" width="46" height="21" as="geometry" />
        </mxCell>
        <mxCell id="xd3_DoJURjWQBY7y_7KH-63" value="" style="ellipse;whiteSpace=wrap;html=1;rounded=0;strokeColor=light-dark(#000000,#000000);align=center;verticalAlign=middle;fontFamily=Helvetica;fontSize=12;fontColor=light-dark(#000000,#000000);fillColor=none;" parent="1" vertex="1">
          <mxGeometry x="744" y="281" width="46" height="21" as="geometry" />
        </mxCell>
        <mxCell id="xd3_DoJURjWQBY7y_7KH-64" value="" style="ellipse;whiteSpace=wrap;html=1;rounded=0;strokeColor=light-dark(#000000,#000000);align=center;verticalAlign=middle;fontFamily=Helvetica;fontSize=12;fontColor=light-dark(#000000,#000000);fillColor=none;" parent="1" vertex="1">
          <mxGeometry x="777" y="308" width="46" height="21" as="geometry" />
        </mxCell>
        <mxCell id="xd3_DoJURjWQBY7y_7KH-65" value="" style="ellipse;whiteSpace=wrap;html=1;rounded=0;strokeColor=light-dark(#000000,#000000);align=center;verticalAlign=middle;fontFamily=Helvetica;fontSize=12;fontColor=light-dark(#000000,#000000);fillColor=none;" parent="1" vertex="1">
          <mxGeometry x="792" y="344" width="46" height="21" as="geometry" />
        </mxCell>
        <mxCell id="xd3_DoJURjWQBY7y_7KH-66" value="" style="ellipse;whiteSpace=wrap;html=1;rounded=0;strokeColor=light-dark(#000000,#000000);align=center;verticalAlign=middle;fontFamily=Helvetica;fontSize=12;fontColor=light-dark(#000000,#000000);fillColor=none;" parent="1" vertex="1">
          <mxGeometry x="792" y="381" width="46" height="21" as="geometry" />
        </mxCell>
        <mxCell id="xd3_DoJURjWQBY7y_7KH-67" value="" style="ellipse;whiteSpace=wrap;html=1;rounded=0;strokeColor=light-dark(#000000,#000000);align=center;verticalAlign=middle;fontFamily=Helvetica;fontSize=12;fontColor=light-dark(#000000,#000000);fillColor=none;" parent="1" vertex="1">
          <mxGeometry x="767" y="413" width="46" height="21" as="geometry" />
        </mxCell>
        <mxCell id="xd3_DoJURjWQBY7y_7KH-68" value="" style="ellipse;whiteSpace=wrap;html=1;rounded=0;strokeColor=light-dark(#000000,#000000);align=center;verticalAlign=middle;fontFamily=Helvetica;fontSize=12;fontColor=light-dark(#000000,#000000);fillColor=none;" parent="1" vertex="1">
          <mxGeometry x="722" y="438" width="46" height="21" as="geometry" />
        </mxCell>
        <mxCell id="xd3_DoJURjWQBY7y_7KH-69" value="" style="ellipse;whiteSpace=wrap;html=1;rounded=0;strokeColor=light-dark(#000000,#000000);align=center;verticalAlign=middle;fontFamily=Helvetica;fontSize=12;fontColor=light-dark(#000000,#000000);fillColor=none;dashed=1;" parent="1" vertex="1">
          <mxGeometry x="671" y="445" width="46" height="21" as="geometry" />
        </mxCell>
        <mxCell id="xd3_DoJURjWQBY7y_7KH-70" value="" style="endArrow=none;html=1;rounded=0;fontFamily=Helvetica;fontSize=12;fontColor=light-dark(#000000,#000000);startSize=8;endSize=8;curved=1;strokeColor=light-dark(#000000,#000000);exitX=0.326;exitY=1;exitDx=0;exitDy=0;entryX=0.75;entryY=0;entryDx=0;entryDy=0;exitPerimeter=0;" parent="1" source="xd3_DoJURjWQBY7y_7KH-62" target="xd3_DoJURjWQBY7y_7KH-51" edge="1">
          <mxGeometry relative="1" as="geometry">
            <mxPoint x="512" y="67" as="sourcePoint" />
            <mxPoint x="549" y="114" as="targetPoint" />
          </mxGeometry>
        </mxCell>
        <mxCell id="xd3_DoJURjWQBY7y_7KH-71" value="" style="endArrow=none;html=1;rounded=0;fontFamily=Helvetica;fontSize=12;fontColor=light-dark(#000000,#000000);startSize=8;endSize=8;curved=1;strokeColor=light-dark(#000000,#000000);exitX=0.75;exitY=0;exitDx=0;exitDy=0;entryX=0;entryY=1;entryDx=0;entryDy=0;" parent="1" source="xd3_DoJURjWQBY7y_7KH-51" target="xd3_DoJURjWQBY7y_7KH-63" edge="1">
          <mxGeometry relative="1" as="geometry">
            <mxPoint x="728" y="330" as="sourcePoint" />
            <mxPoint x="765" y="377" as="targetPoint" />
          </mxGeometry>
        </mxCell>
        <mxCell id="xd3_DoJURjWQBY7y_7KH-72" value="" style="endArrow=none;html=1;rounded=0;fontFamily=Helvetica;fontSize=12;fontColor=light-dark(#000000,#000000);startSize=8;endSize=8;curved=1;strokeColor=light-dark(#000000,#000000);exitX=0;exitY=0.5;exitDx=0;exitDy=0;entryX=0.75;entryY=0;entryDx=0;entryDy=0;" parent="1" source="xd3_DoJURjWQBY7y_7KH-64" target="xd3_DoJURjWQBY7y_7KH-51" edge="1">
          <mxGeometry relative="1" as="geometry">
            <mxPoint x="745" y="296" as="sourcePoint" />
            <mxPoint x="782" y="343" as="targetPoint" />
          </mxGeometry>
        </mxCell>
        <mxCell id="xd3_DoJURjWQBY7y_7KH-73" value="" style="endArrow=none;html=1;rounded=0;fontFamily=Helvetica;fontSize=12;fontColor=light-dark(#000000,#000000);startSize=8;endSize=8;curved=1;strokeColor=light-dark(#000000,#000000);exitX=1;exitY=0.25;exitDx=0;exitDy=0;entryX=0;entryY=0.5;entryDx=0;entryDy=0;" parent="1" source="xd3_DoJURjWQBY7y_7KH-51" target="xd3_DoJURjWQBY7y_7KH-65" edge="1">
          <mxGeometry relative="1" as="geometry">
            <mxPoint x="770" y="355" as="sourcePoint" />
            <mxPoint x="807" y="402" as="targetPoint" />
          </mxGeometry>
        </mxCell>
        <mxCell id="xd3_DoJURjWQBY7y_7KH-74" value="" style="endArrow=none;html=1;rounded=0;fontFamily=Helvetica;fontSize=12;fontColor=light-dark(#000000,#000000);startSize=8;endSize=8;curved=1;strokeColor=light-dark(#000000,#000000);exitX=1;exitY=0.25;exitDx=0;exitDy=0;entryX=0;entryY=0.5;entryDx=0;entryDy=0;" parent="1" source="xd3_DoJURjWQBY7y_7KH-51" target="xd3_DoJURjWQBY7y_7KH-66" edge="1">
          <mxGeometry relative="1" as="geometry">
            <mxPoint x="750" y="370" as="sourcePoint" />
            <mxPoint x="787" y="417" as="targetPoint" />
          </mxGeometry>
        </mxCell>
        <mxCell id="xd3_DoJURjWQBY7y_7KH-75" value="" style="endArrow=none;html=1;rounded=0;fontFamily=Helvetica;fontSize=12;fontColor=light-dark(#000000,#000000);startSize=8;endSize=8;curved=1;strokeColor=light-dark(#000000,#000000);exitX=1;exitY=0.5;exitDx=0;exitDy=0;entryX=0;entryY=0.5;entryDx=0;entryDy=0;" parent="1" source="xd3_DoJURjWQBY7y_7KH-51" target="xd3_DoJURjWQBY7y_7KH-67" edge="1">
          <mxGeometry relative="1" as="geometry">
            <mxPoint x="745" y="405" as="sourcePoint" />
            <mxPoint x="782" y="452" as="targetPoint" />
          </mxGeometry>
        </mxCell>
        <mxCell id="xd3_DoJURjWQBY7y_7KH-76" value="" style="endArrow=none;html=1;rounded=0;fontFamily=Helvetica;fontSize=12;fontColor=light-dark(#000000,#000000);startSize=8;endSize=8;curved=1;strokeColor=light-dark(#000000,#000000);exitX=1;exitY=1;exitDx=0;exitDy=0;entryX=0;entryY=0;entryDx=0;entryDy=0;" parent="1" source="xd3_DoJURjWQBY7y_7KH-51" target="xd3_DoJURjWQBY7y_7KH-68" edge="1">
          <mxGeometry relative="1" as="geometry">
            <mxPoint x="702" y="417" as="sourcePoint" />
            <mxPoint x="739" y="464" as="targetPoint" />
          </mxGeometry>
        </mxCell>
        <mxCell id="xd3_DoJURjWQBY7y_7KH-77" value="" style="endArrow=none;html=1;rounded=0;fontFamily=Helvetica;fontSize=12;fontColor=light-dark(#000000,#000000);startSize=8;endSize=8;curved=1;strokeColor=light-dark(#000000,#000000);exitX=1;exitY=1;exitDx=0;exitDy=0;entryX=0.5;entryY=0;entryDx=0;entryDy=0;" parent="1" source="xd3_DoJURjWQBY7y_7KH-51" target="xd3_DoJURjWQBY7y_7KH-69" edge="1">
          <mxGeometry relative="1" as="geometry">
            <mxPoint x="665" y="498" as="sourcePoint" />
            <mxPoint x="702" y="545" as="targetPoint" />
          </mxGeometry>
        </mxCell>
        <mxCell id="xd3_DoJURjWQBY7y_7KH-78" value="&lt;font style=&quot;font-size: 7px;&quot;&gt;department&lt;/font&gt;" style="text;strokeColor=none;fillColor=none;html=1;align=center;verticalAlign=middle;whiteSpace=wrap;rounded=0;fontSize=12;fontFamily=Helvetica;fontColor=light-dark(#000000,#000000);" parent="1" vertex="1">
          <mxGeometry x="509" y="99" width="60" height="30" as="geometry" />
        </mxCell>
        <mxCell id="xd3_DoJURjWQBY7y_7KH-79" value="&lt;font style=&quot;font-size: 7px;&quot;&gt;customer&lt;/font&gt;" style="text;strokeColor=none;fillColor=none;html=1;align=center;verticalAlign=middle;whiteSpace=wrap;rounded=0;fontSize=12;fontFamily=Helvetica;fontColor=light-dark(#000000,#000000);" parent="1" vertex="1">
          <mxGeometry x="611" y="365" width="60" height="30" as="geometry" />
        </mxCell>
        <mxCell id="xd3_DoJURjWQBY7y_7KH-80" value="&lt;font style=&quot;font-size: 7px;&quot;&gt;orders&lt;/font&gt;" style="text;strokeColor=none;fillColor=none;html=1;align=center;verticalAlign=middle;whiteSpace=wrap;rounded=0;fontSize=12;fontFamily=Helvetica;fontColor=light-dark(#000000,#000000);" parent="1" vertex="1">
          <mxGeometry x="431" y="258" width="60" height="30" as="geometry" />
        </mxCell>
        <mxCell id="xd3_DoJURjWQBY7y_7KH-81" value="&lt;font style=&quot;font-size: 7px;&quot;&gt;product&lt;/font&gt;" style="text;strokeColor=none;fillColor=none;html=1;align=center;verticalAlign=middle;whiteSpace=wrap;rounded=0;fontSize=12;fontFamily=Helvetica;fontColor=light-dark(#000000,#000000);" parent="1" vertex="1">
          <mxGeometry x="220" y="365" width="60" height="30" as="geometry" />
        </mxCell>
        <mxCell id="xd3_DoJURjWQBY7y_7KH-82" value="" style="ellipse;whiteSpace=wrap;html=1;rounded=0;strokeColor=light-dark(#000000,#000000);align=center;verticalAlign=middle;fontFamily=Helvetica;fontSize=12;fontColor=light-dark(#000000,#000000);fillColor=none;" parent="1" vertex="1">
          <mxGeometry x="82" y="300" width="46" height="21" as="geometry" />
        </mxCell>
        <mxCell id="xd3_DoJURjWQBY7y_7KH-83" value="" style="ellipse;whiteSpace=wrap;html=1;rounded=0;strokeColor=light-dark(#000000,#000000);align=center;verticalAlign=middle;fontFamily=Helvetica;fontSize=12;fontColor=light-dark(#000000,#000000);fillColor=none;" parent="1" vertex="1">
          <mxGeometry x="61" y="327" width="46" height="21" as="geometry" />
        </mxCell>
        <mxCell id="xd3_DoJURjWQBY7y_7KH-84" value="" style="ellipse;whiteSpace=wrap;html=1;rounded=0;strokeColor=light-dark(#000000,#000000);align=center;verticalAlign=middle;fontFamily=Helvetica;fontSize=12;fontColor=light-dark(#000000,#000000);fillColor=none;" parent="1" vertex="1">
          <mxGeometry x="133" y="437" width="46" height="21" as="geometry" />
        </mxCell>
        <mxCell id="xd3_DoJURjWQBY7y_7KH-85" value="" style="ellipse;whiteSpace=wrap;html=1;rounded=0;strokeColor=light-dark(#000000,#000000);align=center;verticalAlign=middle;fontFamily=Helvetica;fontSize=12;fontColor=light-dark(#000000,#000000);fillColor=none;" parent="1" vertex="1">
          <mxGeometry x="61" y="359" width="46" height="21" as="geometry" />
        </mxCell>
        <mxCell id="xd3_DoJURjWQBY7y_7KH-86" value="" style="ellipse;whiteSpace=wrap;html=1;rounded=0;strokeColor=light-dark(#000000,#000000);align=center;verticalAlign=middle;fontFamily=Helvetica;fontSize=12;fontColor=light-dark(#000000,#000000);fillColor=none;" parent="1" vertex="1">
          <mxGeometry x="77" y="387" width="46" height="21" as="geometry" />
        </mxCell>
        <mxCell id="xd3_DoJURjWQBY7y_7KH-87" value="" style="ellipse;whiteSpace=wrap;html=1;rounded=0;strokeColor=light-dark(#000000,#000000);align=center;verticalAlign=middle;fontFamily=Helvetica;fontSize=12;fontColor=light-dark(#000000,#000000);fillColor=none;" parent="1" vertex="1">
          <mxGeometry x="97" y="414" width="46" height="21" as="geometry" />
        </mxCell>
        <mxCell id="xd3_DoJURjWQBY7y_7KH-88" value="" style="ellipse;whiteSpace=wrap;html=1;rounded=0;strokeColor=light-dark(#000000,#000000);align=center;verticalAlign=middle;fontFamily=Helvetica;fontSize=12;fontColor=light-dark(#000000,#000000);fillColor=none;" parent="1" vertex="1">
          <mxGeometry x="118" y="273" width="46" height="21" as="geometry" />
        </mxCell>
        <mxCell id="xd3_DoJURjWQBY7y_7KH-89" value="" style="ellipse;whiteSpace=wrap;html=1;rounded=0;strokeColor=light-dark(#000000,#000000);align=center;verticalAlign=middle;fontFamily=Helvetica;fontSize=12;fontColor=light-dark(#000000,#000000);fillColor=none;" parent="1" vertex="1">
          <mxGeometry x="171" y="267" width="46" height="21" as="geometry" />
        </mxCell>
        <mxCell id="xd3_DoJURjWQBY7y_7KH-90" value="" style="endArrow=none;html=1;rounded=0;fontFamily=Helvetica;fontSize=12;fontColor=light-dark(#000000,#000000);startSize=8;endSize=8;curved=1;strokeColor=light-dark(#000000,#000000);entryX=0.5;entryY=1;entryDx=0;entryDy=0;exitX=0;exitY=0.5;exitDx=0;exitDy=0;" parent="1" source="xd3_DoJURjWQBY7y_7KH-50" target="xd3_DoJURjWQBY7y_7KH-89" edge="1">
          <mxGeometry relative="1" as="geometry">
            <mxPoint x="254" y="229" as="sourcePoint" />
            <mxPoint x="303" y="167" as="targetPoint" />
          </mxGeometry>
        </mxCell>
        <mxCell id="xd3_DoJURjWQBY7y_7KH-91" value="" style="endArrow=none;html=1;rounded=0;fontFamily=Helvetica;fontSize=12;fontColor=light-dark(#000000,#000000);startSize=8;endSize=8;curved=1;strokeColor=light-dark(#000000,#000000);exitX=0;exitY=0.75;exitDx=0;exitDy=0;entryX=0.726;entryY=0.925;entryDx=0;entryDy=0;entryPerimeter=0;" parent="1" source="xd3_DoJURjWQBY7y_7KH-81" target="xd3_DoJURjWQBY7y_7KH-88" edge="1">
          <mxGeometry relative="1" as="geometry">
            <mxPoint x="150" y="426" as="sourcePoint" />
            <mxPoint x="199" y="364" as="targetPoint" />
          </mxGeometry>
        </mxCell>
        <mxCell id="xd3_DoJURjWQBY7y_7KH-92" value="" style="endArrow=none;html=1;rounded=0;fontFamily=Helvetica;fontSize=12;fontColor=light-dark(#000000,#000000);startSize=8;endSize=8;curved=1;strokeColor=light-dark(#000000,#000000);entryX=1;entryY=1;entryDx=0;entryDy=0;" parent="1" target="xd3_DoJURjWQBY7y_7KH-82" edge="1">
          <mxGeometry relative="1" as="geometry">
            <mxPoint x="217" y="384" as="sourcePoint" />
            <mxPoint x="209" y="391" as="targetPoint" />
          </mxGeometry>
        </mxCell>
        <mxCell id="xd3_DoJURjWQBY7y_7KH-93" value="" style="endArrow=none;html=1;rounded=0;fontFamily=Helvetica;fontSize=12;fontColor=light-dark(#000000,#000000);startSize=8;endSize=8;curved=1;strokeColor=light-dark(#000000,#000000);exitX=0;exitY=0.5;exitDx=0;exitDy=0;entryX=1;entryY=0.5;entryDx=0;entryDy=0;" parent="1" source="xd3_DoJURjWQBY7y_7KH-50" target="xd3_DoJURjWQBY7y_7KH-83" edge="1">
          <mxGeometry relative="1" as="geometry">
            <mxPoint x="185" y="459" as="sourcePoint" />
            <mxPoint x="234" y="397" as="targetPoint" />
          </mxGeometry>
        </mxCell>
        <mxCell id="xd3_DoJURjWQBY7y_7KH-94" value="" style="endArrow=none;html=1;rounded=0;fontFamily=Helvetica;fontSize=12;fontColor=light-dark(#000000,#000000);startSize=8;endSize=8;curved=1;strokeColor=light-dark(#000000,#000000);exitX=1;exitY=0.5;exitDx=0;exitDy=0;" parent="1" source="xd3_DoJURjWQBY7y_7KH-85" edge="1">
          <mxGeometry relative="1" as="geometry">
            <mxPoint x="151" y="450" as="sourcePoint" />
            <mxPoint x="217" y="382" as="targetPoint" />
          </mxGeometry>
        </mxCell>
        <mxCell id="xd3_DoJURjWQBY7y_7KH-95" value="" style="endArrow=none;html=1;rounded=0;fontFamily=Helvetica;fontSize=12;fontColor=light-dark(#000000,#000000);startSize=8;endSize=8;curved=1;strokeColor=light-dark(#000000,#000000);exitX=1;exitY=0.5;exitDx=0;exitDy=0;" parent="1" source="xd3_DoJURjWQBY7y_7KH-86" edge="1">
          <mxGeometry relative="1" as="geometry">
            <mxPoint x="133" y="440" as="sourcePoint" />
            <mxPoint x="217" y="383" as="targetPoint" />
          </mxGeometry>
        </mxCell>
        <mxCell id="xd3_DoJURjWQBY7y_7KH-96" value="" style="endArrow=none;html=1;rounded=0;fontFamily=Helvetica;fontSize=12;fontColor=light-dark(#000000,#000000);startSize=8;endSize=8;curved=1;strokeColor=light-dark(#000000,#000000);exitX=1;exitY=0.5;exitDx=0;exitDy=0;" parent="1" source="xd3_DoJURjWQBY7y_7KH-87" edge="1">
          <mxGeometry relative="1" as="geometry">
            <mxPoint x="145" y="466" as="sourcePoint" />
            <mxPoint x="217" y="384" as="targetPoint" />
          </mxGeometry>
        </mxCell>
        <mxCell id="xd3_DoJURjWQBY7y_7KH-97" value="" style="endArrow=none;html=1;rounded=0;fontFamily=Helvetica;fontSize=12;fontColor=light-dark(#000000,#000000);startSize=8;endSize=8;curved=1;strokeColor=light-dark(#000000,#000000);exitX=1;exitY=0;exitDx=0;exitDy=0;" parent="1" source="xd3_DoJURjWQBY7y_7KH-84" edge="1">
          <mxGeometry relative="1" as="geometry">
            <mxPoint x="171" y="482" as="sourcePoint" />
            <mxPoint x="218" y="385" as="targetPoint" />
          </mxGeometry>
        </mxCell>
        <mxCell id="xd3_DoJURjWQBY7y_7KH-98" value="" style="ellipse;whiteSpace=wrap;html=1;rounded=0;strokeColor=light-dark(#000000,#000000);align=center;verticalAlign=middle;fontFamily=Helvetica;fontSize=12;fontColor=light-dark(#000000,#000000);fillColor=none;" parent="1" vertex="1">
          <mxGeometry x="510" y="166" width="46" height="21" as="geometry" />
        </mxCell>
        <mxCell id="xd3_DoJURjWQBY7y_7KH-99" value="" style="ellipse;whiteSpace=wrap;html=1;rounded=0;strokeColor=light-dark(#000000,#000000);align=center;verticalAlign=middle;fontFamily=Helvetica;fontSize=12;fontColor=light-dark(#000000,#000000);fillColor=none;" parent="1" vertex="1">
          <mxGeometry x="561" y="159" width="46" height="21" as="geometry" />
        </mxCell>
        <mxCell id="xd3_DoJURjWQBY7y_7KH-100" value="" style="ellipse;whiteSpace=wrap;html=1;rounded=0;strokeColor=light-dark(#000000,#000000);align=center;verticalAlign=middle;fontFamily=Helvetica;fontSize=12;fontColor=light-dark(#000000,#000000);fillColor=none;" parent="1" vertex="1">
          <mxGeometry x="613" y="170" width="46" height="21" as="geometry" />
        </mxCell>
        <mxCell id="xd3_DoJURjWQBY7y_7KH-101" value="" style="ellipse;whiteSpace=wrap;html=1;rounded=0;strokeColor=light-dark(#000000,#000000);align=center;verticalAlign=middle;fontFamily=Helvetica;fontSize=12;fontColor=light-dark(#000000,#000000);fillColor=none;" parent="1" vertex="1">
          <mxGeometry x="624" y="203" width="46" height="21" as="geometry" />
        </mxCell>
        <mxCell id="xd3_DoJURjWQBY7y_7KH-102" value="" style="ellipse;whiteSpace=wrap;html=1;rounded=0;strokeColor=light-dark(#000000,#000000);align=center;verticalAlign=middle;fontFamily=Helvetica;fontSize=12;fontColor=light-dark(#000000,#000000);fillColor=none;" parent="1" vertex="1">
          <mxGeometry x="619" y="238" width="46" height="21" as="geometry" />
        </mxCell>
        <mxCell id="xd3_DoJURjWQBY7y_7KH-103" value="" style="ellipse;whiteSpace=wrap;html=1;rounded=0;strokeColor=light-dark(#000000,#000000);align=center;verticalAlign=middle;fontFamily=Helvetica;fontSize=12;fontColor=light-dark(#000000,#000000);fillColor=none;" parent="1" vertex="1">
          <mxGeometry x="591" y="262" width="46" height="21" as="geometry" />
        </mxCell>
        <mxCell id="xd3_DoJURjWQBY7y_7KH-104" value="" style="ellipse;whiteSpace=wrap;html=1;rounded=0;strokeColor=light-dark(#000000,#000000);align=center;verticalAlign=middle;fontFamily=Helvetica;fontSize=12;fontColor=light-dark(#000000,#000000);fillColor=none;" parent="1" vertex="1">
          <mxGeometry x="550" y="281" width="46" height="21" as="geometry" />
        </mxCell>
        <mxCell id="xd3_DoJURjWQBY7y_7KH-105" value="" style="endArrow=none;html=1;rounded=0;fontFamily=Helvetica;fontSize=12;fontColor=light-dark(#000000,#000000);startSize=8;endSize=8;curved=1;strokeColor=light-dark(#000000,#000000);entryX=0.5;entryY=1;entryDx=0;entryDy=0;" parent="1" target="xd3_DoJURjWQBY7y_7KH-98" edge="1">
          <mxGeometry relative="1" as="geometry">
            <mxPoint x="476" y="266" as="sourcePoint" />
            <mxPoint x="198" y="316" as="targetPoint" />
          </mxGeometry>
        </mxCell>
        <mxCell id="xd3_DoJURjWQBY7y_7KH-106" value="" style="endArrow=none;html=1;rounded=0;fontFamily=Helvetica;fontSize=12;fontColor=light-dark(#000000,#000000);startSize=8;endSize=8;curved=1;strokeColor=light-dark(#000000,#000000);entryX=0.305;entryY=1.021;entryDx=0;entryDy=0;entryPerimeter=0;" parent="1" target="xd3_DoJURjWQBY7y_7KH-99" edge="1">
          <mxGeometry relative="1" as="geometry">
            <mxPoint x="478" y="264" as="sourcePoint" />
            <mxPoint x="523" y="256" as="targetPoint" />
          </mxGeometry>
        </mxCell>
        <mxCell id="xd3_DoJURjWQBY7y_7KH-107" value="" style="endArrow=none;html=1;rounded=0;fontFamily=Helvetica;fontSize=12;fontColor=light-dark(#000000,#000000);startSize=8;endSize=8;curved=1;strokeColor=light-dark(#000000,#000000);entryX=0;entryY=1;entryDx=0;entryDy=0;exitX=1;exitY=0;exitDx=0;exitDy=0;" parent="1" source="xd3_DoJURjWQBY7y_7KH-13" target="xd3_DoJURjWQBY7y_7KH-100" edge="1">
          <mxGeometry relative="1" as="geometry">
            <mxPoint x="509" y="318" as="sourcePoint" />
            <mxPoint x="486" y="223" as="targetPoint" />
          </mxGeometry>
        </mxCell>
        <mxCell id="xd3_DoJURjWQBY7y_7KH-108" value="" style="endArrow=none;html=1;rounded=0;fontFamily=Helvetica;fontSize=12;fontColor=light-dark(#000000,#000000);startSize=8;endSize=8;curved=1;strokeColor=light-dark(#000000,#000000);entryX=0;entryY=0.5;entryDx=0;entryDy=0;exitX=1;exitY=0;exitDx=0;exitDy=0;" parent="1" source="xd3_DoJURjWQBY7y_7KH-13" target="xd3_DoJURjWQBY7y_7KH-101" edge="1">
          <mxGeometry relative="1" as="geometry">
            <mxPoint x="535" y="354" as="sourcePoint" />
            <mxPoint x="512" y="259" as="targetPoint" />
          </mxGeometry>
        </mxCell>
        <mxCell id="xd3_DoJURjWQBY7y_7KH-109" value="" style="endArrow=none;html=1;rounded=0;fontFamily=Helvetica;fontSize=12;fontColor=light-dark(#000000,#000000);startSize=8;endSize=8;curved=1;strokeColor=light-dark(#000000,#000000);entryX=0;entryY=0.5;entryDx=0;entryDy=0;exitX=1;exitY=0;exitDx=0;exitDy=0;" parent="1" source="xd3_DoJURjWQBY7y_7KH-13" target="xd3_DoJURjWQBY7y_7KH-102" edge="1">
          <mxGeometry relative="1" as="geometry">
            <mxPoint x="521" y="382" as="sourcePoint" />
            <mxPoint x="498" y="287" as="targetPoint" />
          </mxGeometry>
        </mxCell>
        <mxCell id="xd3_DoJURjWQBY7y_7KH-110" value="" style="endArrow=none;html=1;rounded=0;fontFamily=Helvetica;fontSize=12;fontColor=light-dark(#000000,#000000);startSize=8;endSize=8;curved=1;strokeColor=light-dark(#000000,#000000);entryX=1;entryY=0.25;entryDx=0;entryDy=0;exitX=0;exitY=0;exitDx=0;exitDy=0;" parent="1" source="xd3_DoJURjWQBY7y_7KH-103" target="xd3_DoJURjWQBY7y_7KH-13" edge="1">
          <mxGeometry relative="1" as="geometry">
            <mxPoint x="513" y="396" as="sourcePoint" />
            <mxPoint x="490" y="301" as="targetPoint" />
          </mxGeometry>
        </mxCell>
        <mxCell id="xd3_DoJURjWQBY7y_7KH-112" value="" style="endArrow=none;html=1;rounded=0;fontFamily=Helvetica;fontSize=12;fontColor=light-dark(#000000,#000000);startSize=8;endSize=8;curved=1;strokeColor=light-dark(#000000,#000000);entryX=1;entryY=0.5;entryDx=0;entryDy=0;exitX=0;exitY=0.5;exitDx=0;exitDy=0;" parent="1" source="xd3_DoJURjWQBY7y_7KH-104" target="xd3_DoJURjWQBY7y_7KH-13" edge="1">
          <mxGeometry relative="1" as="geometry">
            <mxPoint x="540" y="397" as="sourcePoint" />
            <mxPoint x="517" y="302" as="targetPoint" />
          </mxGeometry>
        </mxCell>
        <mxCell id="xd3_DoJURjWQBY7y_7KH-114" value="" style="edgeStyle=none;curved=1;rounded=0;orthogonalLoop=1;jettySize=auto;html=1;fontFamily=Helvetica;fontSize=12;fontColor=light-dark(#000000,#000000);startSize=8;endSize=8;" parent="1" source="xd3_DoJURjWQBY7y_7KH-113" target="xd3_DoJURjWQBY7y_7KH-80" edge="1">
          <mxGeometry relative="1" as="geometry" />
        </mxCell>
        <mxCell id="xd3_DoJURjWQBY7y_7KH-113" value="works_for" style="text;html=1;align=center;verticalAlign=middle;whiteSpace=wrap;rounded=0;fontSize=6;fontFamily=Helvetica;fontColor=light-dark(#000000,#000000);" parent="1" vertex="1">
          <mxGeometry x="412" y="104" width="40" height="22" as="geometry" />
        </mxCell>
        <mxCell id="xd3_DoJURjWQBY7y_7KH-115" value="&lt;font style=&quot;font-size: 7px;&quot;&gt;sells&lt;/font&gt;" style="text;strokeColor=none;fillColor=none;html=1;align=center;verticalAlign=middle;whiteSpace=wrap;rounded=0;fontSize=12;fontFamily=Helvetica;fontColor=light-dark(#000000,#000000);" parent="1" vertex="1">
          <mxGeometry x="338" y="313" width="60" height="30" as="geometry" />
        </mxCell>
        <mxCell id="xd3_DoJURjWQBY7y_7KH-116" value="&lt;font style=&quot;font-size: 7px;&quot;&gt;buys&lt;/font&gt;" style="text;strokeColor=none;fillColor=none;html=1;align=center;verticalAlign=middle;whiteSpace=wrap;rounded=0;fontSize=12;fontFamily=Helvetica;fontColor=light-dark(#000000,#000000);" parent="1" vertex="1">
          <mxGeometry x="522" y="308" width="60" height="30" as="geometry" />
        </mxCell>
        <mxCell id="xd3_DoJURjWQBY7y_7KH-117" value="&lt;font style=&quot;font-size: 7px;&quot;&gt;places&lt;/font&gt;" style="text;strokeColor=none;fillColor=none;html=1;align=center;verticalAlign=middle;whiteSpace=wrap;rounded=0;fontSize=12;fontFamily=Helvetica;fontColor=light-dark(#000000,#000000);" parent="1" vertex="1">
          <mxGeometry x="365" y="195" width="60" height="30" as="geometry" />
        </mxCell>
        <mxCell id="1EA-LdWhnkIZu2qRUmc4-1" value="employee_id" style="text;html=1;align=center;verticalAlign=middle;whiteSpace=wrap;rounded=0;fontSize=6;fontFamily=Helvetica;fontColor=light-dark(#000000,#000000);" vertex="1" parent="1">
          <mxGeometry x="148" y="32" width="40" height="22" as="geometry" />
        </mxCell>
        <mxCell id="1EA-LdWhnkIZu2qRUmc4-2" value="user_name" style="text;html=1;align=center;verticalAlign=middle;whiteSpace=wrap;rounded=0;fontSize=6;fontFamily=Helvetica;fontColor=light-dark(#000000,#000000);" vertex="1" parent="1">
          <mxGeometry x="86" y="40" width="40" height="22" as="geometry" />
        </mxCell>
        <mxCell id="1EA-LdWhnkIZu2qRUmc4-3" value="first_name" style="text;html=1;align=center;verticalAlign=middle;whiteSpace=wrap;rounded=0;fontSize=6;fontFamily=Helvetica;fontColor=light-dark(#000000,#000000);" vertex="1" parent="1">
          <mxGeometry x="52" y="61" width="40" height="22" as="geometry" />
        </mxCell>
        <mxCell id="1EA-LdWhnkIZu2qRUmc4-4" value="last_name" style="text;html=1;align=center;verticalAlign=middle;whiteSpace=wrap;rounded=0;fontSize=6;fontFamily=Helvetica;fontColor=light-dark(#000000,#000000);" vertex="1" parent="1">
          <mxGeometry x="40" y="90" width="40" height="22" as="geometry" />
        </mxCell>
        <mxCell id="1EA-LdWhnkIZu2qRUmc4-5" value="position" style="text;html=1;align=center;verticalAlign=middle;whiteSpace=wrap;rounded=0;fontSize=6;fontFamily=Helvetica;fontColor=light-dark(#000000,#000000);" vertex="1" parent="1">
          <mxGeometry x="54" y="119" width="40" height="22" as="geometry" />
        </mxCell>
        <mxCell id="1EA-LdWhnkIZu2qRUmc4-6" value="employement_date" style="text;html=1;align=center;verticalAlign=middle;whiteSpace=wrap;rounded=0;fontSize=5;fontFamily=Helvetica;fontColor=light-dark(#000000,#000000);" vertex="1" parent="1">
          <mxGeometry x="74" y="149" width="50" height="22" as="geometry" />
        </mxCell>
        <mxCell id="1EA-LdWhnkIZu2qRUmc4-7" value="department_id" style="text;html=1;align=center;verticalAlign=middle;whiteSpace=wrap;rounded=0;fontSize=6;fontFamily=Helvetica;fontColor=light-dark(#000000,#000000);" vertex="1" parent="1">
          <mxGeometry x="125" y="177" width="40" height="22" as="geometry" />
        </mxCell>
        <mxCell id="1EA-LdWhnkIZu2qRUmc4-8" value="manager_id" style="text;html=1;align=center;verticalAlign=middle;whiteSpace=wrap;rounded=0;fontSize=6;fontFamily=Helvetica;fontColor=light-dark(#000000,#000000);" vertex="1" parent="1">
          <mxGeometry x="172" y="184" width="40" height="22" as="geometry" />
        </mxCell>
        <mxCell id="1EA-LdWhnkIZu2qRUmc4-9" value="rate" style="text;html=1;align=center;verticalAlign=middle;whiteSpace=wrap;rounded=0;fontSize=6;fontFamily=Helvetica;fontColor=light-dark(#000000,#000000);" vertex="1" parent="1">
          <mxGeometry x="221" y="192" width="40" height="22" as="geometry" />
        </mxCell>
        <mxCell id="1EA-LdWhnkIZu2qRUmc4-10" value="bonus" style="text;html=1;align=center;verticalAlign=middle;whiteSpace=wrap;rounded=0;fontSize=6;fontFamily=Helvetica;fontColor=light-dark(#000000,#000000);" vertex="1" parent="1">
          <mxGeometry x="286" y="198" width="40" height="22" as="geometry" />
        </mxCell>
        <mxCell id="1EA-LdWhnkIZu2qRUmc4-11" value="department_id" style="text;html=1;align=center;verticalAlign=middle;whiteSpace=wrap;rounded=0;fontSize=6;fontFamily=Helvetica;fontColor=light-dark(#000000,#000000);" vertex="1" parent="1">
          <mxGeometry x="484" y="32" width="40" height="22" as="geometry" />
        </mxCell>
        <mxCell id="1EA-LdWhnkIZu2qRUmc4-13" value="department_name" style="text;html=1;align=center;verticalAlign=middle;whiteSpace=wrap;rounded=0;fontSize=6;fontFamily=Helvetica;fontColor=light-dark(#000000,#000000);" vertex="1" parent="1">
          <mxGeometry x="543" y="31" width="40" height="22" as="geometry" />
        </mxCell>
        <mxCell id="1EA-LdWhnkIZu2qRUmc4-14" value="city" style="text;html=1;align=center;verticalAlign=middle;whiteSpace=wrap;rounded=0;fontSize=6;fontFamily=Helvetica;fontColor=light-dark(#000000,#000000);" vertex="1" parent="1">
          <mxGeometry x="601" y="44" width="40" height="22" as="geometry" />
        </mxCell>
        <mxCell id="1EA-LdWhnkIZu2qRUmc4-15" value="building_no" style="text;html=1;align=center;verticalAlign=middle;whiteSpace=wrap;rounded=0;fontSize=6;fontFamily=Helvetica;fontColor=light-dark(#000000,#000000);" vertex="1" parent="1">
          <mxGeometry x="607" y="80" width="40" height="22" as="geometry" />
        </mxCell>
        <mxCell id="1EA-LdWhnkIZu2qRUmc4-16" value="" style="ellipse;whiteSpace=wrap;html=1;rounded=0;strokeColor=light-dark(#000000,#000000);align=center;verticalAlign=middle;fontFamily=Helvetica;fontSize=12;fontColor=light-dark(#000000,#000000);fillColor=none;" vertex="1" parent="1">
          <mxGeometry x="429" y="49" width="46" height="21" as="geometry" />
        </mxCell>
        <mxCell id="1EA-LdWhnkIZu2qRUmc4-17" value="street" style="text;html=1;align=center;verticalAlign=middle;whiteSpace=wrap;rounded=0;fontSize=6;fontFamily=Helvetica;fontColor=light-dark(#000000,#000000);" vertex="1" parent="1">
          <mxGeometry x="431" y="47" width="40" height="22" as="geometry" />
        </mxCell>
        <mxCell id="1EA-LdWhnkIZu2qRUmc4-18" value="" style="endArrow=none;html=1;rounded=0;fontSize=12;startSize=8;endSize=8;curved=1;entryX=1;entryY=0.75;entryDx=0;entryDy=0;exitX=0.5;exitY=0;exitDx=0;exitDy=0;strokeColor=light-dark(#000000,#000000);" edge="1" parent="1" source="xd3_DoJURjWQBY7y_7KH-78" target="1EA-LdWhnkIZu2qRUmc4-17">
          <mxGeometry width="50" height="50" relative="1" as="geometry">
            <mxPoint x="500" y="187" as="sourcePoint" />
            <mxPoint x="550" y="137" as="targetPoint" />
          </mxGeometry>
        </mxCell>
        <mxCell id="1EA-LdWhnkIZu2qRUmc4-19" value="(product_id" style="text;html=1;align=center;verticalAlign=middle;whiteSpace=wrap;rounded=0;fontSize=6;fontFamily=Helvetica;fontColor=light-dark(#000000,#000000);" vertex="1" parent="1">
          <mxGeometry x="174" y="264" width="40" height="22" as="geometry" />
        </mxCell>
        <mxCell id="1EA-LdWhnkIZu2qRUmc4-20" value=" product_name" style="text;html=1;align=center;verticalAlign=middle;whiteSpace=wrap;rounded=0;fontSize=6;fontFamily=Helvetica;fontColor=light-dark(#000000,#000000);" vertex="1" parent="1">
          <mxGeometry x="122" y="271" width="40" height="22" as="geometry" />
        </mxCell>
        <mxCell id="1EA-LdWhnkIZu2qRUmc4-21" value="product_description" style="text;html=1;align=center;verticalAlign=middle;whiteSpace=wrap;rounded=0;fontSize=6;fontFamily=Helvetica;fontColor=light-dark(#000000,#000000);" vertex="1" parent="1">
          <mxGeometry x="84" y="300" width="40" height="22" as="geometry" />
        </mxCell>
        <mxCell id="1EA-LdWhnkIZu2qRUmc4-22" value="category" style="text;html=1;align=center;verticalAlign=middle;whiteSpace=wrap;rounded=0;fontSize=6;fontFamily=Helvetica;fontColor=light-dark(#000000,#000000);" vertex="1" parent="1">
          <mxGeometry x="66" y="324" width="40" height="22" as="geometry" />
        </mxCell>
        <mxCell id="1EA-LdWhnkIZu2qRUmc4-23" value="manufacture" style="text;html=1;align=center;verticalAlign=middle;whiteSpace=wrap;rounded=0;fontSize=6;fontFamily=Helvetica;fontColor=light-dark(#000000,#000000);" vertex="1" parent="1">
          <mxGeometry x="66" y="356" width="40" height="22" as="geometry" />
        </mxCell>
        <mxCell id="1EA-LdWhnkIZu2qRUmc4-24" value="product_type" style="text;html=1;align=center;verticalAlign=middle;whiteSpace=wrap;rounded=0;fontSize=6;fontFamily=Helvetica;fontColor=light-dark(#000000,#000000);" vertex="1" parent="1">
          <mxGeometry x="82" y="384" width="40" height="22" as="geometry" />
        </mxCell>
        <mxCell id="1EA-LdWhnkIZu2qRUmc4-25" value="amount" style="text;html=1;align=center;verticalAlign=middle;whiteSpace=wrap;rounded=0;fontSize=6;fontFamily=Helvetica;fontColor=light-dark(#000000,#000000);" vertex="1" parent="1">
          <mxGeometry x="101" y="411" width="40" height="22" as="geometry" />
        </mxCell>
        <mxCell id="1EA-LdWhnkIZu2qRUmc4-26" value=" price" style="text;html=1;align=center;verticalAlign=middle;whiteSpace=wrap;rounded=0;fontSize=6;fontFamily=Helvetica;fontColor=light-dark(#000000,#000000);" vertex="1" parent="1">
          <mxGeometry x="138" y="435" width="40" height="22" as="geometry" />
        </mxCell>
        <mxCell id="1EA-LdWhnkIZu2qRUmc4-27" value="orders_id" style="text;html=1;align=center;verticalAlign=middle;whiteSpace=wrap;rounded=0;fontSize=6;fontFamily=Helvetica;fontColor=light-dark(#000000,#000000);" vertex="1" parent="1">
          <mxGeometry x="513" y="164" width="40" height="22" as="geometry" />
        </mxCell>
        <mxCell id="1EA-LdWhnkIZu2qRUmc4-28" value=" employee_id" style="text;html=1;align=center;verticalAlign=middle;whiteSpace=wrap;rounded=0;fontSize=6;fontFamily=Helvetica;fontColor=light-dark(#000000,#000000);" vertex="1" parent="1">
          <mxGeometry x="564" y="157" width="40" height="22" as="geometry" />
        </mxCell>
        <mxCell id="1EA-LdWhnkIZu2qRUmc4-29" value="product_id" style="text;html=1;align=center;verticalAlign=middle;whiteSpace=wrap;rounded=0;fontSize=6;fontFamily=Helvetica;fontColor=light-dark(#000000,#000000);" vertex="1" parent="1">
          <mxGeometry x="618" y="169" width="40" height="22" as="geometry" />
        </mxCell>
        <mxCell id="1EA-LdWhnkIZu2qRUmc4-30" value="customer_id" style="text;html=1;align=center;verticalAlign=middle;whiteSpace=wrap;rounded=0;fontSize=6;fontFamily=Helvetica;fontColor=light-dark(#000000,#000000);" vertex="1" parent="1">
          <mxGeometry x="627" y="201" width="40" height="22" as="geometry" />
        </mxCell>
        <mxCell id="1EA-LdWhnkIZu2qRUmc4-31" value="transaction_type" style="text;html=1;align=center;verticalAlign=middle;whiteSpace=wrap;rounded=0;fontSize=6;fontFamily=Helvetica;fontColor=light-dark(#000000,#000000);" vertex="1" parent="1">
          <mxGeometry x="623" y="237" width="40" height="22" as="geometry" />
        </mxCell>
        <mxCell id="1EA-LdWhnkIZu2qRUmc4-32" value="transaction_moment" style="text;html=1;align=center;verticalAlign=middle;whiteSpace=wrap;rounded=0;fontSize=6;fontFamily=Helvetica;fontColor=light-dark(#000000,#000000);" vertex="1" parent="1">
          <mxGeometry x="595" y="259" width="40" height="22" as="geometry" />
        </mxCell>
        <mxCell id="1EA-LdWhnkIZu2qRUmc4-33" value="amount" style="text;html=1;align=center;verticalAlign=middle;whiteSpace=wrap;rounded=0;fontSize=6;fontFamily=Helvetica;fontColor=light-dark(#000000,#000000);" vertex="1" parent="1">
          <mxGeometry x="552" y="280" width="40" height="22" as="geometry" />
        </mxCell>
        <mxCell id="1EA-LdWhnkIZu2qRUmc4-34" value="customer_id" style="text;html=1;align=center;verticalAlign=middle;whiteSpace=wrap;rounded=0;fontSize=6;fontFamily=Helvetica;fontColor=light-dark(#000000,#000000);" vertex="1" parent="1">
          <mxGeometry x="690" y="275" width="40" height="22" as="geometry" />
        </mxCell>
        <mxCell id="1EA-LdWhnkIZu2qRUmc4-35" value="first_name" style="text;html=1;align=center;verticalAlign=middle;whiteSpace=wrap;rounded=0;fontSize=6;fontFamily=Helvetica;fontColor=light-dark(#000000,#000000);" vertex="1" parent="1">
          <mxGeometry x="746" y="280" width="40" height="22" as="geometry" />
        </mxCell>
        <mxCell id="1EA-LdWhnkIZu2qRUmc4-36" value=" last_name" style="text;html=1;align=center;verticalAlign=middle;whiteSpace=wrap;rounded=0;fontSize=6;fontFamily=Helvetica;fontColor=light-dark(#000000,#000000);" vertex="1" parent="1">
          <mxGeometry x="781" y="308" width="40" height="22" as="geometry" />
        </mxCell>
        <mxCell id="1EA-LdWhnkIZu2qRUmc4-37" value="genger" style="text;html=1;align=center;verticalAlign=middle;whiteSpace=wrap;rounded=0;fontSize=6;fontFamily=Helvetica;fontColor=light-dark(#000000,#000000);" vertex="1" parent="1">
          <mxGeometry x="798" y="340" width="40" height="22" as="geometry" />
        </mxCell>
        <mxCell id="1EA-LdWhnkIZu2qRUmc4-38" value="birth_date" style="text;html=1;align=center;verticalAlign=middle;whiteSpace=wrap;rounded=0;fontSize=6;fontFamily=Helvetica;fontColor=light-dark(#000000,#000000);" vertex="1" parent="1">
          <mxGeometry x="795" y="378" width="40" height="22" as="geometry" />
        </mxCell>
        <mxCell id="1EA-LdWhnkIZu2qRUmc4-39" value="phone_number" style="text;html=1;align=center;verticalAlign=middle;whiteSpace=wrap;rounded=0;fontSize=6;fontFamily=Helvetica;fontColor=light-dark(#000000,#000000);" vertex="1" parent="1">
          <mxGeometry x="771" y="411" width="40" height="22" as="geometry" />
        </mxCell>
        <mxCell id="1EA-LdWhnkIZu2qRUmc4-40" value=" email," style="text;html=1;align=center;verticalAlign=middle;whiteSpace=wrap;rounded=0;fontSize=6;fontFamily=Helvetica;fontColor=light-dark(#000000,#000000);" vertex="1" parent="1">
          <mxGeometry x="728" y="435" width="40" height="22" as="geometry" />
        </mxCell>
        <mxCell id="1EA-LdWhnkIZu2qRUmc4-41" value="discount" style="text;html=1;align=center;verticalAlign=middle;whiteSpace=wrap;rounded=0;fontSize=6;fontFamily=Helvetica;fontColor=light-dark(#000000,#000000);" vertex="1" parent="1">
          <mxGeometry x="675" y="443" width="40" height="22" as="geometry" />
        </mxCell>
      </root>
    </mxGraphModel>
  </diagram>
</mxfile>
